# xmcd
#
# Track frame offsets:
#	186
#	65397
#	90104
#	105884
#	115837
#
# Disc length: 1624 seconds
#
# Revision: 1
# Processed by: cddbd v1.5.2PL0 Copyright (c) Steve Scherf et al.
# Submitted via: audiograbber 1.83.01
#
DISCID=2b065605
DTITLE=Kraftwerk - 3-D The Catalogue [CD 1) - Autobahn
DYEAR=2017
DGENRE=Electronic
TTITLE0=Autobahn [live]
TTITLE1=Kometenmelodie 1 [live]
TTITLE2=Kometenmelodie 2 [live]
TTITLE3=Mitternacht [live]
TTITLE4=Morgenspaziergang [live]
EXTD=
EXTT0=
EXTT1=
EXTT2=
EXTT3=
EXTT4=
PLAYORDER=
